PathFileType	4	(X/Y/Z)	D:\TRACE\spot_10-12-23\spot_arm_body_motion_3_4-platform.trc
DataRate	CameraRate	NumFrames	NumMarkers	Units	OrigDataRate	OrigDataStartFrame	OrigNumFrames
100.00	100.00	      61	5	mm	100.00	2626	      7000
Frame#	Time	Left_Front			Right_Front			Left_Aft			Right_Aft			Post			
		X1	Y1	Z1	X2	Y2	Z2	X3	Y3	Z3	X4	Y4	Z4	X5	Y5	Z5	

2626	26.250	-777.28802	-8.78200	-644.92120	795.05005	-3.77928	-638.20197	-694.33661	15.21818	492.73508	723.07104	21.59565	578.89081	5.76898	722.08557	-978.88586	
2627	26.260	-777.54346	-8.76224	-644.91461	794.87439	-3.77728	-638.17877	-694.63678	15.19879	492.74063	722.80103	21.54368	578.89581	5.57706	722.15503	-978.62317	
2628	26.270	-777.77637	-8.73324	-644.88446	794.69556	-3.72232	-638.13293	-694.87561	15.19654	492.67889	722.59009	21.54055	578.91229	5.56540	722.24963	-978.36871	
2629	26.280	-778.05225	-8.65244	-644.85480	794.51880	-3.69888	-638.10974	-695.06488	15.12790	492.68448	722.36707	21.52645	578.87488	7.12781	721.43976	-979.35547	
2630	26.290	-778.03577	-8.78795	-644.86371	794.30316	-3.68010	-638.05255	-695.29779	15.14504	492.65408	722.17938	21.58497	578.87201	4.97885	722.30835	-978.45642	
2631	26.300	-778.17413	-8.80201	-644.82294	794.17273	-3.64398	-638.01288	-695.49420	15.14828	492.67114	722.02191	21.62328	578.83325	4.77009	722.33588	-978.64398	
2632	26.310	-778.33990	-8.75393	-644.90869	793.94489	-3.63008	-637.98523	-695.71753	15.20700	492.62833	721.81293	21.61712	578.80365	4.56462	722.29895	-978.85577	
2633	26.320	-778.55359	-8.71410	-644.90192	793.76276	-3.63979	-637.99475	-695.86615	15.19371	492.68762	721.62878	21.64448	578.81116	4.39966	722.22418	-979.15588	
2634	26.330	-778.69775	-8.70718	-644.93536	793.82330	-3.68748	-637.85303	-695.97473	15.09336	492.68097	721.33929	21.64281	578.83014	4.24275	722.20612	-979.37225	
2635	26.340	-778.89850	-8.68564	-644.98975	793.65979	-3.68650	-637.94958	-696.06836	15.09957	492.74026	721.15936	21.68629	578.85870	5.74044	721.47473	-980.40350	
2636	26.350	-779.11597	-8.65670	-645.01288	793.65271	-3.73301	-637.89819	-696.20477	15.10508	492.71219	720.96387	21.64952	578.85315	5.88009	721.36285	-980.76501	
2637	26.360	-779.31238	-8.66815	-644.97552	793.37042	-3.71971	-638.03735	-696.33942	15.08660	492.69421	720.83972	21.63138	578.87830	3.98945	722.13782	-979.98663	
2638	26.370	-779.46417	-8.70218	-645.06171	793.35272	-3.77601	-638.00146	-696.42773	15.08211	492.79959	720.67316	21.66803	578.89661	3.76292	722.15137	-979.96289	
2639	26.380	-779.33923	-8.94614	-645.14417	793.16425	-3.78279	-638.12054	-696.56305	15.13713	492.76932	720.58612	21.70068	578.87469	3.59302	722.11237	-979.93976	
2640	26.390	-779.47614	-8.96702	-645.14868	793.05328	-3.82117	-638.14874	-696.67114	15.22701	492.75711	720.49738	21.75374	578.89923	3.37161	722.03149	-979.76636	
2641	26.400	-779.61304	-8.79523	-645.16205	792.86841	-3.92807	-638.21509	-696.86292	15.36972	492.75488	720.37909	21.83292	578.93066	3.13923	721.64905	-979.57526	
2642	26.410	-779.80469	-8.88042	-645.16083	792.67749	-4.15684	-638.34192	-697.00226	15.49589	492.72852	720.25684	21.93857	578.87372	5.27409	720.42383	-980.66394	
2643	26.420	-780.09088	-9.17346	-645.17749	792.59192	-4.62476	-638.31555	-697.13623	15.71839	492.70529	720.75208	22.76039	579.07227	3.06346	721.31049	-979.36884	
2644	26.430	-780.27032	-9.44094	-645.15021	792.36719	-4.64800	-638.34613	-697.39246	15.77916	492.71677	720.51947	22.91763	579.12244	3.05923	721.05096	-979.37476	
2645	26.440	-780.38452	-9.38435	-645.13666	792.34656	-4.64946	-638.33826	-697.47559	15.78788	492.62408	720.45752	23.10354	579.14966	3.02641	720.64563	-979.49878	
2646	26.450	-780.36792	-9.41962	-645.20618	792.24969	-4.73730	-638.32391	-697.49084	15.93057	492.59076	720.43079	23.08731	579.01752	2.91555	720.51587	-979.68701	
2647	26.460	-780.49438	-9.53724	-645.18170	792.15454	-4.93498	-638.23114	-697.51404	15.97680	492.53882	720.34985	23.22398	578.91638	2.79080	720.40057	-980.02094	
2648	26.470	-780.59229	-9.74464	-645.20465	792.09863	-4.99763	-638.20184	-697.55383	16.06673	492.48975	720.30365	23.49691	578.98938	2.46830	720.08490	-980.38794	
2649	26.480	-780.63977	-10.05001	-645.30273	792.07196	-5.01581	-638.26239	-697.62537	16.18499	492.39432	720.21429	23.53994	578.92865	3.51911	719.22540	-981.61713	
2650	26.490	-780.70074	-10.32534	-645.35828	792.11523	-5.37033	-638.33258	-697.68292	16.32524	492.28867	720.13934	23.63981	578.86981	2.66899	719.42206	-981.62152	
2651	26.500	-780.72314	-10.33494	-645.41333	792.04968	-5.67681	-638.29517	-697.68079	16.28518	492.25552	720.09344	23.74012	578.83691	2.64473	719.16058	-981.99054	
2652	26.510	-780.68488	-10.36743	-645.50415	792.09979	-5.79810	-638.37183	-697.70544	16.49649	492.12936	720.05969	23.87233	578.78955	2.71077	718.85669	-982.30096	
2653	26.520	-780.66241	-10.76115	-645.51190	792.00940	-5.97496	-638.40167	-697.76550	16.74386	492.02960	720.13971	24.17893	578.71002	2.84094	718.62354	-982.61566	
2654	26.530	-780.59656	-11.18830	-645.54871	791.95343	-6.33491	-638.44006	-697.80823	16.91194	491.97372	720.05914	24.40676	578.71466	2.73179	718.39325	-982.91174	
2655	26.540	-780.57782	-11.48754	-645.56506	791.78571	-6.62837	-638.64404	-697.79486	16.98520	491.92291	719.96210	24.47775	578.74854	2.45784	717.92664	-983.07849	
2656	26.550	-780.53613	-11.65568	-645.62787	791.96954	-6.95191	-638.64148	-697.71259	17.03661	491.92133	719.73419	24.53642	578.74866	2.55463	717.25775	-983.32758	
2657	26.560	-780.46161	-11.89291	-645.68414	792.02710	-7.16939	-638.64972	-697.67273	17.19445	491.85861	719.58600	24.61993	578.76996	2.86716	716.89508	-983.65723	
2658	26.570	-780.40112	-12.13705	-645.75177	791.98730	-7.36116	-638.69397	-697.67035	17.42251	491.83322	719.65723	24.81771	578.73511	2.75707	716.71625	-983.80817	
2659	26.580	-780.34314	-12.37131	-645.80652	792.02283	-7.57211	-638.71899	-697.67462	17.65892	491.77930	719.68994	25.00580	578.59357	2.69794	716.54547	-983.97681	
2660	26.590	-780.37585	-12.68618	-645.93115	792.04236	-7.80751	-638.70172	-697.73621	17.84982	491.70462	719.64362	25.11567	578.47656	2.73701	716.29224	-984.20251	
2661	26.600	-780.31927	-12.97565	-646.05469	792.04950	-8.02304	-638.81580	-697.66882	17.94359	491.57471	719.56000	25.18032	578.31348	2.64341	715.77356	-984.29614	
2662	26.610	-780.45074	-13.03539	-646.00604	792.22198	-8.21873	-638.89673	-697.50720	18.07958	491.53055	719.70166	25.45761	578.20972	2.52590	715.34222	-984.57935	
2663	26.620	-780.13275	-13.38608	-646.05322	792.38770	-8.38916	-639.04816	-697.29675	18.27625	491.52823	719.86975	25.72737	578.07159	2.75642	714.80554	-985.05884	
2664	26.630	-779.95758	-13.66452	-646.10193	792.79810	-8.64672	-639.07166	-697.11035	18.50541	491.59003	720.13239	26.00498	577.81866	3.27810	714.40997	-985.46716	
2665	26.640	-779.85883	-13.81612	-646.13983	793.02783	-8.90022	-639.05707	-696.91241	18.71535	491.62619	720.25458	26.17655	577.74390	3.46114	714.04681	-986.03979	
2666	26.650	-779.75519	-14.11234	-646.20343	793.30261	-9.37785	-639.11792	-696.65485	18.81376	491.56409	720.49469	26.28740	577.66040	3.64829	713.77069	-986.44580	
2667	26.660	-779.51672	-14.41133	-646.21350	793.57043	-9.63775	-639.16913	-696.45026	19.05569	491.44009	720.68677	26.41692	577.59528	3.91461	713.26190	-987.04126	
2668	26.670	-779.40723	-14.55596	-646.27783	793.73596	-9.78839	-639.10968	-696.33392	19.32550	491.18756	720.82648	26.62338	577.54956	4.08642	712.69513	-987.39624	
2669	26.680	-779.03406	-14.94485	-646.33173	793.94312	-10.06714	-639.18433	-696.21100	19.62946	491.06430	721.14270	26.81328	577.54498	4.08958	712.58124	-987.71686	
2670	26.690	-778.71893	-15.25186	-646.43243	794.04303	-10.24923	-639.31720	-696.03845	19.73123	491.21939	721.46698	27.04959	577.51086	4.48483	712.13123	-988.16663	
2671	26.700	-778.47485	-15.46978	-646.46259	794.14838	-10.43929	-639.40253	-695.90039	19.83781	491.00662	721.71289	27.21224	577.38898	4.63948	711.69440	-988.63110	
2672	26.710	-778.15753	-15.70564	-646.49390	794.35767	-10.78638	-639.40955	-695.71057	19.90211	490.89804	721.94733	27.33345	577.23486	4.91260	711.28143	-989.00415	
2673	26.720	-777.84595	-15.99220	-646.53918	794.57562	-11.10764	-639.42145	-695.31433	20.04934	490.75708	722.17236	27.52238	577.08685	5.33802	710.90424	-989.28363	
2674	26.730	-777.36316	-16.30072	-646.69659	794.69800	-11.23983	-639.58203	-694.88770	20.22827	490.64389	722.43005	27.68241	577.01709	5.57211	710.71765	-989.41431	
2675	26.740	-777.36450	-16.28585	-646.63745	795.11383	-11.37956	-639.56653	-694.56140	20.46103	490.62259	722.63739	27.81982	576.97504	5.88181	710.45923	-989.49072	
2676	26.750	-777.01929	-16.63155	-646.67548	795.39014	-11.63299	-639.63904	-694.39398	20.52613	490.53305	722.76501	27.96889	576.96521	6.11000	710.23804	-989.49756	
2677	26.760	-777.18585	-16.43136	-646.69666	795.75653	-11.95157	-639.69604	-694.23511	20.66838	490.43253	722.98938	28.19590	576.96918	6.23347	709.97894	-989.52448	
2678	26.770	-776.78564	-16.73828	-646.82111	796.02417	-12.17815	-639.91840	-693.98590	20.71820	490.39828	723.31055	28.41803	576.92920	6.42008	709.47559	-989.65308	
2679	26.780	-776.34729	-17.04136	-646.88147	796.24103	-12.23438	-639.97339	-693.52606	20.83266	490.37567	723.71899	28.56275	576.80298	6.84687	709.02087	-989.97101	
2680	26.790	-775.88519	-17.29500	-646.92596	796.68237	-12.41700	-639.94702	-693.12390	21.01239	490.38086	724.17432	28.68980	576.74115	7.28726	708.74451	-990.33240	
2681	26.800	-776.00122	-17.10250	-646.82471	796.99884	-12.56489	-639.98865	-692.74756	21.18594	490.31689	724.59045	28.79912	576.66827	7.37938	708.48413	-990.54254	
2682	26.810	-775.48395	-17.40082	-646.80530	797.39807	-12.71012	-639.87280	-692.46112	21.25666	490.28442	725.01929	29.03112	576.58978	7.78108	708.33929	-990.92999	
2683	26.820	-775.03790	-17.66227	-646.80725	797.68939	-12.87105	-639.86823	-692.22394	21.29919	490.28326	725.34747	29.14210	576.50000	8.14537	708.12885	-991.22424	
2684	26.830	-774.54059	-17.73114	-646.88837	797.81281	-13.00739	-640.05463	-691.93268	21.31460	490.23740	725.54846	29.18426	576.49500	8.56866	708.02753	-991.54742	
2685	26.840	-774.13885	-17.85164	-646.97443	798.27570	-13.18057	-640.02893	-691.46851	21.37231	490.23618	725.76984	29.25101	576.49921	9.03978	707.94849	-991.94116	
2686	26.850	-773.96167	-17.97123	-646.97321	798.59100	-13.11945	-640.18622	-691.03864	21.49142	490.32837	726.20111	29.28666	576.50226	9.29356	707.86829	-992.14618	
